<?xml version="1.0" standalone="no"?><!DOCTYPE svg PUBLIC "-//W3C//DTD SVG 1.1//EN" "http://www.w3.org/Graphics/SVG/1.1/DTD/svg11.dtd">
<svg t="1715433787656"
     class="icon"
     viewBox="0 0 1024 1024"
     version="1.1"
     xmlns="http://www.w3.org/2000/svg" p-id="52997" xmlns:xlink="http://www.w3.org/1999/xlink"
     width="30" height="30"
><path d="M948.90666667 768.68266667c-5.46133333-52.79288889-10.92266667-105.58577778-20.02488889-151.09688889 14.56355555-5.46133333 25.48622222-14.56355555 32.768-27.30666667 12.74311111-20.02488889 12.74311111-45.51111111 0-69.17688889l-87.38133333-174.76266667c-9.10222222-18.20444445-23.66577778-32.768-41.87022223-43.69066666-18.20444445-10.92266667-38.22933333-16.384-58.25422222-16.384h-109.22666667V73.27288889c0-47.33155555-38.22933333-85.56088889-85.56088888-85.56088889h-89.20177778c-47.33155555 0-85.56088889 38.22933333-85.56088889 85.56088889v211.17155556h-114.688c-18.20444445 0-40.04977778 5.46133333-58.25422223 16.384-18.20444445 10.92266667-34.58844445 27.30666667-41.87022222 43.69066666l-87.38133333 174.76266667c-10.92266667 23.66577778-10.92266667 49.152 0 69.17688889 10.92266667 20.02488889 32.768 32.768 58.25422222 32.768 0 83.74044445-18.20444445 152.91733333-40.04977777 171.12177778-61.89511111 52.79288889-70.99733333 105.58577778-65.536 132.89244444 18.20444445 94.66311111 85.56088889 109.22666667 85.56088888 109.22666666h728.17777778l5.46133334-1.82044444c3.64088889-1.82044445 27.30666667-9.10222222 49.152-30.94755556 30.94755555-30.94755555 45.51111111-70.99733333 38.22933333-116.50844444-5.46133333-38.22933333-9.10222222-78.27911111-12.74311111-116.50844444z m-686.30755556-382.29333334c1.82044445-5.46133333 16.384-14.56355555 25.48622222-14.56355555h200.24888889V76.91377778h92.84266667v296.73244444h194.78755556c9.10222222 0 23.66577778 9.10222222 25.48622222 14.56355556l72.81777778 147.456H187.96088889l74.63822222-149.27644445z m606.208 549.77422222c-5.46133333 5.46133333-10.92266667 9.10222222-14.56355556 10.92266667h-56.43377777c23.66577778-81.92 32.768-160.19911111 30.94755555-172.94222222h-83.74044444s-12.74311111 109.22666667-43.69066667 172.94222222h-56.43377777c1.82044445-7.28177778 29.12711111-118.32888889 38.22933333-172.94222222h-91.02222223s-3.64088889 78.27911111-41.87022222 172.94222222h-60.07466666c1.82044445-7.28177778 30.94755555-163.84 30.94755555-172.94222222h-85.56088889s-25.48622222 136.53333333-41.87022222 172.94222222L329.95555555 948.90666667c1.82044445-7.28177778 36.40888889-163.84 38.22933334-172.94222222h-85.56088889s-12.74311111 81.92-52.79288889 178.40355555c0 0-52.79288889 5.46133333-69.17688889-3.64088889-7.28177778-5.46133333-14.56355555-18.20444445-14.56355555-29.12711111-1.82044445-16.384 3.64088889-36.40888889 27.30666666-54.61333333 32.768-27.30666667 54.61333333-76.45866667 65.536-145.63555556 5.46133333-32.768 5.46133333-65.536 5.46133334-92.84266666h600.74666666c9.10222222 43.69066667 14.56355555 96.48355555 20.02488889 152.91733333 3.64088889 40.04977778 9.10222222 80.09955555 14.56355556 120.14933333 1.82044445 12.74311111-1.82044445 25.48622222-10.92266667 34.58844444z m0 0" fill="#1296db" p-id="52998"></path></svg>