<?xml version="1.0" standalone="no"?><!DOCTYPE svg PUBLIC "-//W3C//DTD SVG 1.1//EN"
        "http://www.w3.org/Graphics/SVG/1.1/DTD/svg11.dtd"><svg t="1715433472371" class="icon"
                                                                viewBox="0 0 1024 1024" version="1.1"
                                                                xmlns="http://www.w3.org/2000/svg" p-id="47467"
                                                                width="30" height="30"
                                                                xmlns:xlink="http://www.w3.org/1999/xlink"><path d="M837.9392 121.344h-166.5024c0-31.744-24.3712-70.144-54.4768-70.144H426.24c-30.0544 0-54.528 38.4-54.528 70.144H205.312c-36.7104 0-77.2608 5.5808-77.2608 42.8544v57.7024h768V164.1984c0-37.2736-21.248-42.8544-58.0608-42.8544zM194.7648 290.1504v556.9536C194.7648 903.7312 248.9856 972.8 304.1792 972.8h433.5616c55.296 0 91.4944-69.0688 91.4944-125.696V290.1504H194.7648z m182.1696 568.6272H310.272V365.9264h66.7136v492.8512z m167.2192 0H477.44V365.9264h66.7136v492.8512z m167.168 0H644.608V365.9264h66.7136v492.8512z" p-id="47468" fill="#1296db"></path></svg>