<?xml version="1.0" standalone="no"?><!DOCTYPE svg PUBLIC "-//W3C//DTD SVG 1.1//EN"
        "http://www.w3.org/Graphics/SVG/1.1/DTD/svg11.dtd"><svg t="1715432816207" class="icon"
                                                                viewBox="0 0 1024 1024" version="1.1"
                                                                xmlns="http://www.w3.org/2000/svg" p-id="31295"
                                                                xmlns:xlink="http://www.w3.org/1999/xlink" width="16" height="16"><path d="M972.8 614.4c-30.72 0-51.2 20.48-51.2 51.2v61.44c0 107.52-5.12 194.56-204.8 194.56H307.2c-204.8 0-204.8-92.16-204.8-204.8v-256C87.04 302.08 163.84 266.24 256 256h5.12c30.72 0 51.2-20.48 51.2-51.2s-20.48-51.2-51.2-51.2H204.8C92.16 153.6 0 245.76 0 358.4v460.8C0 931.84 92.16 1024 204.8 1024h614.4c112.64 0 204.8-92.16 204.8-204.8V665.6c0-25.6-25.6-51.2-51.2-51.2zM179.2 640c0 51.2 10.24 102.4 25.6 148.48 56.32-168.96 215.04-291.84 399.36-291.84v66.56c0 25.6 15.36 51.2 40.96 66.56 10.24 5.12 20.48 10.24 30.72 10.24 15.36 0 30.72-5.12 40.96-15.36l281.6-220.16c15.36-15.36 25.6-35.84 25.6-61.44 0-20.48-10.24-46.08-25.6-56.32L716.8 66.56c-15.36-10.24-30.72-15.36-46.08-15.36-10.24 0-20.48 0-30.72 10.24-25.6 10.24-40.96 35.84-40.96 66.56v71.68c-230.4 0-419.84 194.56-419.84 440.32z m0 0" p-id="31296" fill="#1296db"></path></svg>