<?xml version="1.0" standalone="no"?><!DOCTYPE svg PUBLIC "-//W3C//DTD SVG 1.1//EN" "http://www.w3.org/Graphics/SVG/1.1/DTD/svg11.dtd"><svg t="1716108387660" class="icon" viewBox="0 0 1024 1024" version="1.1" xmlns="http://www.w3.org/2000/svg" p-id="9982" xmlns:xlink="http://www.w3.org/1999/xlink" width="20" height="20"><path d="M866.0992 597.4528a43.008 43.008 0 0 0-42.9568 42.9568v244.6848a22.272 22.272 0 0 1-22.3232 22.3232H120.4224a22.272 22.272 0 0 1-22.3232-22.3232V180.5824c0-12.3904 9.984-22.3232 22.3232-22.3232H425.984a43.008 43.008 0 0 0 0-85.9648H120.576A108.2368 108.2368 0 0 0 12.4416 180.48v704.512c0 59.5456 48.4864 108.032 108.1344 108.032h680.4992a108.2368 108.2368 0 0 0 108.1344-108.1344v-244.4288a43.264 43.264 0 0 0-43.1104-43.008z m-448.512-252.2624C365.9264 423.2192 353.3312 499.8656 352.1024 508.416a43.008 43.008 0 0 0 42.496 49.0496c21.0944 0 39.3728-15.872 42.496-36.4544 0.3584-2.8672 11.264-67.6864 53.3504-130.2016 55.296-82.0736 138.496-123.9552 246.784-124.3136 1.6384 0.1024 3.072 0.2048 4.3008 0.2048a43.008 43.008 0 0 0 42.9568-42.9568v-50.4832l120.576 114.688-120.7296 100.5568v-41.0112a43.008 43.008 0 0 0-85.9136 0v132.7104a43.1104 43.1104 0 0 0 70.3488 33.1264l228.096-189.952a42.8544 42.8544 0 0 0 15.2576-31.5904 42.9056 42.9056 0 0 0-13.2096-32.6144L770.9696 42.0864a42.8544 42.8544 0 0 0-72.3456 31.0784v109.056c-150.8864 12.5952-236.032 95.2832-281.088 162.9696z" fill="#1096db" p-id="9983"></path></svg>