<?xml version="1.0" standalone="no"?><!DOCTYPE svg PUBLIC "-//W3C//DTD SVG 1.1//EN"
        "http://www.w3.org/Graphics/SVG/1.1/DTD/svg11.dtd"><svg t="1715434919473" class="icon"
                                                                viewBox="0 0 1024 1024" version="1.1"
                                                                xmlns="http://www.w3.org/2000/svg" p-id="64260"
                                                                xmlns:xlink="http://www.w3.org/1999/xlink" width="32" height="32"><path d="M512.02 958.689C265.677 958.689 65.29 758.302 65.29 512S265.677 65.311 512.02 65.311c246.302 0 446.69 200.387 446.69 446.689S758.322 958.689 512.02 958.689z m0-829.147c-210.924 0-382.5 171.575-382.5 382.458s171.576 382.458 382.5 382.458c210.883 0 382.458-171.575 382.458-382.458S722.903 129.542 512.02 129.542z" fill="#d81e06" p-id="64261"></path><path d="M330.828 725.266c-8.238 0-16.435-3.136-22.706-9.41-12.545-12.544-12.545-32.868 0-45.412L670.465 308.1c12.545-12.545 32.869-12.545 45.413 0 12.545 12.545 12.545 32.869 0 45.413L353.535 715.857c-6.273 6.273-14.469 9.41-22.707 9.41z" fill="#d81e06" p-id="64262"></path><path d="M693.171 725.266c-8.237 0-16.434-3.136-22.706-9.41L308.122 353.514c-12.545-12.544-12.545-32.868 0-45.413 12.544-12.545 32.868-12.545 45.413 0l362.343 362.345c12.545 12.544 12.545 32.868 0 45.413-6.272 6.272-14.468 9.408-22.707 9.408z" fill="#d81e06" p-id="64263"></path></svg>