<?xml version="1.0" standalone="no"?><!DOCTYPE svg PUBLIC "-//W3C//DTD SVG 1.1//EN" "http://www.w3.org/Graphics/SVG/1.1/DTD/svg11.dtd"><svg t="1716107225818" class="icon" viewBox="0 0 1024 1024" version="1.1" xmlns="http://www.w3.org/2000/svg" p-id="6916" width="48" height="48" xmlns:xlink="http://www.w3.org/1999/xlink"><path d="M361 433.8H210.1c-16.3 0-29.6-13.2-29.6-29.6 0-16.3 13.2-29.6 29.6-29.6H361c16.3 0 29.6 13.2 29.6 29.6 0 16.3-13.3 29.6-29.6 29.6z" fill="#009A74" opacity=".6" p-id="6917"></path><path d="M361 557.5H210.1c-16.3 0-29.6-13.2-29.6-29.6 0-16.3 13.2-29.6 29.6-29.6H361c16.3 0 29.6 13.2 29.6 29.6 0 16.3-13.3 29.6-29.6 29.6z" fill="#009A74" opacity=".6" p-id="6918"></path><path d="M965.6 823.9V248.2l-2.3-5.4c-1.5-3.5-30.7-70.1-141.2-96.4v-0.8H819c-26.7-6.1-57.9-9.9-94.6-9.9-118.3 0-180.6 38.8-211.6 69.8-31-30.9-93.4-69.8-211.7-69.8-192.4 0-237.2 102.8-239 107.1l-2.3 5.4v571.7c0 22.2 6.9 38.5 20.6 48.5 21.5 15.8 49 7.1 59.3 3.9l3.1-1.2c99.9-44.4 263.1-13.1 312.3 1.4 6.7 2 20.7 6.1 35.8 6.1 7.9 0 16-1.4 23.6-4.5 19.1 7.2 39.8 0.9 48.5-1.8l3.1-1.2c100-44.5 263-13.1 312.3 1.3 6.7 2 20.7 6.1 35.8 6.1 13.4 0 27.8-3.3 38.7-14.1 12.4-12 14.6-28.3 12.7-40.5zM670 198.3c16.2-2.2 34.1-3.5 54.3-3.5 21.9 0 41.2 1.5 58.4 4V340l-54.8-32.6-57.9 33.2V198.3z m-393.7 591c-53.9 0-109.5 7-155.8 27.1-0.5 0.2-1.1 0.3-1.5 0.4V261.6c9.9-15.6 52.3-66.8 182.1-66.8s172.2 51.1 182.1 66.8v557c-3-0.5-6.7-1.4-11.3-2.8-35.3-10.3-113.5-26.5-195.6-26.5z m630.2 29.3c-3-0.5-6.7-1.4-11.4-2.8-35.2-10.3-113.4-26.5-195.5-26.5-53.9 0-109.5 7-155.8 27.1-0.5 0.2-1 0.3-1.5 0.4V261.6c7-11 30.2-39.5 88.3-55.5v202.6l96.9-55.7 94.6 56.3V207.2c55.4 16.2 77.5 43.7 84.4 54.4v557z" fill="#009A74" p-id="6919"></path></svg>