<?xml version="1.0" standalone="no"?><!DOCTYPE svg PUBLIC "-//W3C//DTD SVG 1.1//EN" "http://www.w3.org/Graphics/SVG/1.1/DTD/svg11.dtd"><svg t="1715864028881" class="icon" viewBox="0 0 1025 1024" version="1.1" xmlns="http://www.w3.org/2000/svg" p-id="90207" data-spm-anchor-id="a313x.search_index.0.i51.60803a81aVpeE7" xmlns:xlink="http://www.w3.org/1999/xlink" width="64.0625" height="64"><path d="M669.964 53.012h-261.71c-13.741 0-24.829 11.126-24.829 24.711v173.875c0 13.585 11.088 24.711 24.829 24.711h261.71c13.661 0 24.827-11.126 24.827-24.711V77.723c0-13.584-11.166-24.711-24.827-24.711M384.44 395.375h-24.36c-5.856 0-10.618 3.28-10.618 7.457 0 4.137 4.762 7.417 10.618 7.417h24.36c5.854 0 10.696-3.28 10.696-7.417 0.001-4.178-4.841-7.457-10.696-7.457M451.195 395.375h-24.359c-5.856 0-10.619 3.28-10.619 7.457 0 4.137 4.762 7.417 10.619 7.417h24.359c5.856 0 10.619-3.28 10.619-7.417-0.001-4.178-4.763-7.457-10.619-7.457M517.873 395.375H493.512c-5.856 0-10.617 3.28-10.617 7.457 0 4.137 4.761 7.417 10.617 7.417h24.361c5.933 0 10.693-3.28 10.693-7.417 0-4.178-4.76-7.457-10.693-7.457M584.627 395.375h-24.36c-5.777 0-10.617 3.28-10.617 7.457 0 4.137 4.84 7.417 10.617 7.417h24.36c5.934 0 10.617-3.28 10.617-7.417 0-4.178-4.684-7.457-10.617-7.457M651.302 395.375h-24.281c-5.933 0-10.616 3.28-10.616 7.457 0 4.137 4.684 7.417 10.616 7.417h24.281c5.934 0 10.62-3.28 10.62-7.417 0-4.178-4.687-7.457-10.62-7.457M718.056 395.375h-24.358c-5.855 0-10.619 3.28-10.619 7.457 0 4.137 4.764 7.417 10.619 7.417h24.358c5.856 0 10.62-3.28 10.62-7.417 0.001-4.178-4.763-7.457-10.62-7.457M393.341 386.668h24.36c5.854 0 10.618-3.356 10.618-7.417 0-4.059-4.764-7.339-10.618-7.339h-24.36c-5.856 0-10.618 3.28-10.618 7.339 0 4.061 4.762 7.417 10.618 7.417M460.096 386.668h24.358c5.856 0 10.62-3.356 10.62-7.417 0-4.059-4.763-7.339-10.62-7.339h-24.358c-5.856 0-10.696 3.28-10.696 7.339-0.001 4.061 4.84 7.417 10.696 7.417M526.77 386.668h24.361c5.933 0 10.696-3.356 10.696-7.417 0-4.059-4.764-7.339-10.696-7.339h-24.361c-5.776 0-10.616 3.28-10.616 7.339 0 4.061 4.84 7.417 10.616 7.417M593.525 386.668h24.281c5.936 0 10.697-3.356 10.697-7.417 0-4.059-4.762-7.339-10.697-7.339h-24.281c-5.933 0-10.617 3.28-10.617 7.339 0 4.061 4.685 7.417 10.617 7.417M660.28 386.668h24.36c5.856 0 10.617-3.356 10.617-7.417 0-4.059-4.761-7.339-10.617-7.339h-24.36c-5.854 0-10.694 3.28-10.694 7.339 0 4.061 4.841 7.417 10.694 7.417M388.577 505.267H126.868c-13.742 0-24.828 11.125-24.828 24.79v173.755c0 13.665 11.086 24.672 24.828 24.672h261.709c13.663 0 24.828-11.007 24.828-24.672V530.057c0.001-13.665-11.164-24.79-24.828-24.79" fill="#2aa515" p-id="90208" data-spm-anchor-id="a313x.search_index.0.i47.60803a81aVpeE7" class=""></path><path d="M498.821 837.088c0-12.962-10.54-23.502-23.578-23.502H457.752l-17.411-35.483h-55.355V761.94h36.149c13.819 0 25.063-9.917 25.063-22.135V494.024c0-12.22-11.243-22.136-25.063-22.136H94.233c-13.82 0-25.063 9.916-25.063 22.136v245.782c0 12.218 11.243 22.135 25.063 22.135h36.227v16.162H75.026l-17.411 35.483H40.126c-13.039 0-23.579 10.54-23.579 23.502L-0.004 873.705c0 13.038 10.54 23.658 23.5 23.658H491.872c13.039 0 23.579-10.62 23.579-23.658l-16.63-36.617zM94.233 747.771c-5.935 0-10.853-3.671-10.853-7.965V494.024c0-4.295 4.918-8.003 10.853-8.003h326.902c5.934 0 10.931 3.708 10.931 8.003v245.782c0 4.294-4.997 7.965-10.931 7.965H94.233z m337.286 44.463c4.764 9.524 17.412 35.406 17.412 35.406h26.312c5.23 0 9.447 4.255 9.447 9.447v3.045s12.958 28.536 16.003 35.252c-0.856 4.333-4.214 7.768-8.821 7.768H23.496c-4.607 0-7.963-3.435-8.823-7.768 3.044-6.716 16.005-35.252 16.005-35.252v-3.045c0-5.192 4.217-9.447 9.447-9.447h26.39s12.648-25.882 17.411-35.406h60.665v-22.058h226.264" fill="#f6ef37" p-id="90209" data-spm-anchor-id="a313x.search_index.0.i53.60803a81aVpeE7" class=""></path><path d="M103.055 847.628H78.696c-5.856 0-10.62 3.278-10.62 7.457 0 4.137 4.764 7.415 10.62 7.415h24.358c5.856 0 10.697-3.278 10.697-7.415 0-4.179-4.84-7.457-10.696-7.457M169.732 847.628h-24.281c-5.935 0-10.619 3.278-10.619 7.457 0 4.137 4.684 7.415 10.619 7.415h24.281c5.933 0 10.696-3.278 10.696-7.415 0.001-4.179-4.763-7.457-10.696-7.457M236.565 847.628h-24.438c-5.856 0-10.618 3.278-10.618 7.457 0 4.137 4.762 7.415 10.618 7.415h24.438c5.776 0 10.618-3.278 10.618-7.415 0-4.179-4.841-7.457-10.618-7.457M303.242 847.628h-24.282c-5.934 0-10.696 3.278-10.696 7.457 0 4.137 4.762 7.415 10.696 7.415h24.282c5.933 0 10.618-3.278 10.618-7.415 0-4.179-4.685-7.457-10.618-7.457M369.918 847.628h-24.281c-5.935 0-10.697 3.278-10.697 7.457 0 4.137 4.762 7.415 10.697 7.415h24.281c5.856 0 10.696-3.278 10.696-7.415 0-4.179-4.84-7.457-10.696-7.457M436.672 847.628h-24.359c-5.855 0-10.54 3.278-10.54 7.457 0 4.137 4.685 7.415 10.54 7.415h24.359c5.856 0 10.619-3.278 10.619-7.415 0-4.179-4.762-7.457-10.619-7.457M111.955 838.96h24.438c5.778 0 10.618-3.278 10.618-7.415 0-4.177-4.84-7.457-10.618-7.457h-24.438c-5.933 0-10.618 3.28-10.618 7.457 0 4.137 4.685 7.415 10.618 7.415M178.71 838.96h24.359c5.856 0 10.54-3.278 10.54-7.415 0-4.177-4.684-7.457-10.54-7.457h-24.359c-5.933 0-10.619 3.28-10.619 7.457 0.001 4.137 4.686 7.415 10.619 7.415M245.465 838.96h24.281c5.935 0 10.62-3.278 10.62-7.415 0-4.177-4.685-7.457-10.62-7.457h-24.281c-5.933 0-10.773 3.28-10.773 7.457-0.001 4.137 4.84 7.415 10.773 7.415M312.142 838.96h24.359c5.855 0 10.54-3.278 10.54-7.415 0-4.177-4.685-7.457-10.54-7.457H312.142c-5.935 0-10.618 3.28-10.618 7.457 0 4.137 4.684 7.415 10.618 7.415M378.897 838.96h24.36c5.855 0 10.54-3.278 10.54-7.415 0-4.177-4.685-7.457-10.54-7.457h-24.36c-5.934 0-10.696 3.28-10.696 7.457 0 4.137 4.762 7.415 10.696 7.415M899.036 612.31H637.248c-13.662 0-24.748 11.007-24.748 24.748v173.758c0 13.662 11.086 24.79 24.748 24.79h261.788c13.664 0 24.751-11.128 24.751-24.79V637.058c0-13.742-11.087-24.748-24.751-24.748" fill="#2aa515" p-id="90210" data-spm-anchor-id="a313x.search_index.0.i48.60803a81aVpeE7" class=""></path><path d="M1009.279 944.13c0-13.038-10.54-23.578-23.578-23.578H968.212l-17.412-35.486h-55.354v-16.083h36.149c13.818 0 24.984-9.917 24.984-22.135V600.986c0-12.141-11.166-22.055-24.984-22.055H604.691c-13.897 0-25.061 9.914-25.061 22.055v36.071h-42.474V445.07h236.101c13.039 0 23.579-10.54 23.579-23.579l-16.633-36.618c0-13.039-10.54-23.579-23.499-23.579h-17.568l-17.409-35.486H666.372v-16.162h36.147c13.821 0 24.984-9.837 24.984-22.134V41.731c0-12.141-11.163-22.056-24.984-22.056H375.696c-13.898 0-25.141 9.916-25.141 22.056v245.782c0 12.297 11.243 22.134 25.141 22.134h36.149v16.162h-55.355l-17.489 35.486H321.512c-12.962 0-23.58 10.54-23.58 23.579l-16.551 36.618c0 13.039 10.54 23.579 23.579 23.579h205.026v191.988H446.902v27.169h132.73v182.621c0 12.218 11.163 22.135 25.061 22.135h36.15v16.083h-55.358l-17.409 35.486h-17.568c-13.038 0-23.578 10.54-23.578 23.578l-16.63 36.617c0 13.038 10.619 23.578 23.578 23.578h468.455c13.038 0 23.578-10.54 23.578-23.578l-16.632-36.618zM375.696 295.516c-5.935 0-10.931-3.631-10.931-8.003V41.731c0-4.294 4.997-7.887 10.931-7.887h326.824c5.934 0 10.931 3.593 10.931 7.887v245.782c0 4.372-4.997 8.003-10.931 8.003H375.696z m-79.56 127.576c2.968-6.637 15.928-35.174 15.928-35.174v-3.045c0-5.192 4.294-9.408 9.447-9.408h26.389s12.648-25.922 17.411-35.524h60.665v-21.979h226.262v21.979h60.665c4.764 9.602 17.412 35.524 17.412 35.524h26.39c5.153 0 9.447 4.216 9.447 9.408v3.045s12.883 28.537 15.928 35.174c-0.859 4.333-4.218 7.846-8.822 7.846H304.959c-4.684 0-8.042-3.514-8.823-7.846M604.691 854.81c-5.933 0-11.01-3.668-11.01-7.962V600.986c0-4.217 5.077-7.923 11.01-7.923h326.903c5.934 0 10.854 3.706 10.854 7.923v245.861c0 4.294-4.92 7.962-10.854 7.962H604.691z m397.64 135.384H533.876c-4.527 0-7.885-3.515-8.665-7.847 2.966-6.636 15.928-35.173 15.928-35.173v-3.045c0-5.191 4.217-9.447 9.367-9.447h26.313s12.805-25.882 17.488-35.409h60.665v-22.055h226.341v22.055h60.665c4.607 9.527 17.333 35.409 17.333 35.409h26.39c5.23 0 9.447 4.256 9.447 9.447v3.045s12.962 28.537 15.927 35.173c-0.859 4.333-4.217 7.847-8.744 7.847" fill="#f6ef37" p-id="90211" data-spm-anchor-id="a313x.search_index.0.i52.60803a81aVpeE7" class=""></path><path d="M613.513 954.709h-24.435c-5.856 0-10.543 3.277-10.543 7.418 0 4.099 4.687 7.454 10.543 7.454h24.435c5.856 0 10.62-3.355 10.62-7.454 0-4.141-4.764-7.418-10.62-7.418M680.19 954.709h-24.281c-5.933 0-10.696 3.277-10.696 7.418 0 4.099 4.764 7.454 10.696 7.454h24.281c5.856 0 10.62-3.355 10.62-7.454 0-4.141-4.763-7.418-10.62-7.418M746.945 954.709h-24.358c-5.856 0-10.696 3.277-10.696 7.418 0 4.099 4.84 7.454 10.696 7.454h24.358c5.856 0 10.619-3.355 10.619-7.454 0-4.141-4.762-7.418-10.619-7.418M813.623 954.709H789.262c-5.856 0-10.617 3.277-10.617 7.418 0 4.099 4.761 7.454 10.617 7.454h24.361c5.933 0 10.696-3.355 10.696-7.454 0-4.141-4.763-7.418-10.696-7.418M880.377 954.709h-24.36c-5.856 0-10.696 3.277-10.696 7.418 0 4.099 4.84 7.454 10.696 7.454h24.36c5.856 0 10.617-3.355 10.617-7.454 0-4.141-4.761-7.418-10.617-7.418M947.132 954.709h-24.438c-5.779 0-10.62 3.277-10.62 7.418 0 4.099 4.841 7.454 10.62 7.454h24.438c5.776 0 10.617-3.355 10.617-7.454 0-4.141-4.841-7.418-10.617-7.418M622.414 945.964h24.36c5.856 0 10.54-3.278 10.54-7.415 0-4.179-4.684-7.457-10.54-7.457h-24.36c-5.934 0-10.697 3.278-10.697 7.457 0 4.137 4.763 7.415 10.697 7.415M689.092 945.964h24.358c5.855 0 10.619-3.278 10.619-7.415 0-4.179-4.764-7.457-10.619-7.457H689.092c-5.856 0-10.62 3.278-10.62 7.457 0 4.137 4.763 7.415 10.62 7.415M755.846 945.964h24.282c5.933 0 10.696-3.278 10.696-7.415 0-4.179-4.764-7.457-10.696-7.457h-24.282c-5.933 0-10.696 3.278-10.696 7.457-0.001 4.137 4.763 7.415 10.696 7.415M822.523 945.964h24.436c5.779 0 10.543-3.278 10.543-7.415 0-4.179-4.764-7.457-10.543-7.457h-24.436c-5.855 0-10.619 3.278-10.619 7.457 0 4.137 4.764 7.415 10.619 7.415M889.278 945.964h24.358c5.856 0 10.619-3.278 10.619-7.415 0-4.179-4.763-7.457-10.619-7.457h-24.358c-5.936 0-10.619 3.278-10.619 7.457 0 4.137 4.684 7.415 10.619 7.415" fill="#2aa515" p-id="90212" data-spm-anchor-id="a313x.search_index.0.i49.60803a81aVpeE7" class=""></path></svg>