<?xml version="1.0" standalone="no"?><!DOCTYPE svg PUBLIC "-//W3C//DTD SVG 1.1//EN"
        "http://www.w3.org/Graphics/SVG/1.1/DTD/svg11.dtd"><svg t="1715866584609" class="icon"
                                                                viewBox="0 0 1024 1024" version="1.1"
                                                                xmlns="http://www.w3.org/2000/svg" p-id="7582"
                                                                data-spm-anchor-id="a313x.search_index.0.i8.7a293a81SHz6js" xmlns:xlink="http://www.w3.org/1999/xlink" width="36" height="36"><path d="M547.06176 721.00864c-4.7872 1.56672-9.62048 3.01056-14.55616 4.16768-4.93056 1.24928-9.05728 5.44256-10.14272 10.37824L510.35136 786.944H449.18272l-11.91936-51.3792c-1.11104-5.01248-5.22752-9.12896-10.15808-10.37312-22.31296-5.44768-42.77248-15.31904-62.49472-25.99936-5.15584-2.7904-9.12896-3.3024-14.80192 0.2304l-44.96384 27.97056-43.2896-43.20256 27.9808-44.89728c3.08224-4.9408 3.52256-9.12896 0.21504-14.81216-11.3408-19.2768-20.53632-40.18688-26.05568-62.4896-1.2544-4.92544-5.44768-9.04704-10.38336-10.14784l-51.37408-11.92448V478.7456l51.45088-11.92448c5.00736-1.1008 9.13408-5.22752 10.38336-10.15296 5.37088-22.016 14.57664-42.47552 25.61536-61.68576 2.87232-5.15072 3.82976-9.9328 0.29184-15.52896l-27.97056-44.9024 43.20768-43.14112 44.96384 27.9808c4.93568 3.09248 9.12896 3.45088 14.80192 0.21504 19.35872-11.33568 40.19712-20.53632 62.49472-25.97888 4.93056-1.2544 9.05728-5.44256 10.15296-10.37824l11.92448-51.3792h61.16352l11.93472 51.3792c1.1008 5.01248 5.22752 9.12384 10.14784 10.37824 22.2976 5.44256 42.77248 15.30368 62.4896 25.984 5.16096 2.7904 9.13408 3.30752 14.81216-0.22016l44.89728-27.9808 43.20256 43.14112-28.04736 45.04576c-3.16416 5.00736-3.09248 9.79456-0.23552 14.80192 9.89696 16.81408 18.15552 34.87232 23.72096 54.00576a285.568 285.568 0 0 1 42.23488-19.28192c-5.59616-17.75104-12.71296-34.73408-21.57056-50.64192l31.99488-51.072c3.5584-5.62176 2.688-13.696-2.14016-18.44736l-63.2576-63.3344c-4.75136-4.75136-12.73856-5.61664-18.45248-2.13504l-51.072 31.90272c-18.21184-10.29632-37.85216-18.21184-58.42944-23.99744l-13.46048-58.8288c-1.18784-5.38112-6.5024-11.71456-14.4896-11.71456H434.9952c-6.656 0-13.06624 5.22752-14.4896 11.71456l-13.46048 58.8288c-20.58752 5.8624-40.14592 13.85984-58.42944 23.99744l-51.2256-31.90272c-5.632-3.56864-13.70112-2.69824-18.45248 2.13504L215.66976 308.87936c-4.75136 4.75648-5.61664 12.83584-2.13504 18.45248l32.07168 51.072c-10.30144 18.21184-18.28864 37.77024-23.99744 58.34752l-58.98752 13.46048c-5.93408 1.35168-10.77248 6.7328-11.47904 12.83072v92.94848c0.7936 6.09792 5.54496 11.48928 11.47904 12.83072l58.82368 13.47072c5.86752 20.5824 13.85472 40.13056 23.99744 58.34752L213.4528 691.712c-3.56352 5.62688-2.69312 13.70112 2.13504 18.45248l63.26272 63.25248c4.75136 4.7616 12.83072 5.632 18.45248 2.14016l51.072-31.8976c18.28864 10.2912 37.85216 18.20672 58.42944 23.99232l13.4656 58.8288c1.42336 6.49216 7.7568 11.62752 14.48448 11.71456h89.63072c6.65088 0 13.06624-5.0688 14.49472-11.71456l13.45536-58.8288c0.67584-0.18944 1.33632-0.41984 2.00704-0.60928a285.2864 285.2864 0 0 1-7.28064-46.03392z" fill="#1296db" p-id="7583" data-spm-anchor-id="a313x.search_index.0.i9.7a293a81SHz6js" class=""></path><path d="M770.45248 670.3616H696.2176c-63.50848 0-115.06176 52.81792-115.06176 117.9136v7.61856c0 26.60352 51.51232 26.63424 115.06176 26.63424h74.22976c63.5392 0 115.06176-0.9728 115.06176-26.63424v-7.61856c0.04096-65.1776-51.5328-117.9136-115.05664-117.9136z m-126.98624-103.76704c0 49.64352 40.24832 89.92256 89.92256 89.92256 49.62816 0 89.92256-40.2688 89.92256-89.92256s-40.2688-89.9328-89.92256-89.9328c-49.67424 0.02048-89.92256 40.28416-89.92256 89.9328z" fill="#47cf2f" p-id="7584" data-spm-anchor-id="a313x.search_index.0.i11.7a293a81SHz6js" class="selected"></path><path d="M595.12832 561.48992L531.2512 497.62816a105.78432 105.78432 0 0 0 6.18496-35.77344c0-58.74688-47.82592-106.56768-106.56768-106.56768-14.62784 0-33.09568-1.51552-46.52544 4.32128l-6.35904 2.75456a5.44768 5.44768 0 0 0-1.664 8.8064l69.8624 67.59424-6.71744 28.02176-29.12256 7.85408-68.68992-66.33472c-2.7904-2.57536-6.784-2.57536-9.26208-0.1024-0.67072 0.67072-1.16736 1.4848-1.4848 2.29888-0.03584 0.06656-2.07872 4.58752-2.07872 4.58752-5.80096 13.43488-4.55168 32.09216-4.55168 46.72512 0 58.74688 47.82592 106.56256 106.56768 106.56256 12.29312 0 24.27904-2.08384 35.79904-6.18496l63.872 63.872c14.76608 13.60896 22.82496 16.06656 33.64352 15.21664 12.16-0.95744 26.25024-18.8928 34.88256-27.52 17.81248-17.78176 13.9008-34.45248-3.91168-52.27008z m-10.43968 37.91872c-4.80768 4.80256-18.6112 22.3488-25.32864 21.39136s-9.69216-4.31104-14.49472-9.07776l-73.4464-73.45152-6.3232 2.72384a85.79072 85.79072 0 0 1-34.22208 7.10144c-47.56992 0-86.27712-38.70208-86.27712-86.27712 0-6.61504 0.74752-13.11744 2.23232-19.47648l55.35744 51.94752a6.1952 6.1952 0 0 0 7.63392 0.10752l47.56992-12.2624 8.84224-44.14976c2.304-2.37056 2.36544-5.9392 0.38912-8.448L411.40736 377.8048a85.46304 85.46304 0 0 1 19.47136-2.23232c47.57504 0 86.28224 38.7072 86.28224 86.28224 0 11.84256-2.4064 23.36256-7.10656 34.21696l-2.71872 6.3232 73.45664 73.45152c9.8816 9.89184 13.79328 13.67552 3.89632 23.56224z" fill="#1296db" p-id="7585" data-spm-anchor-id="a313x.search_index.0.i10.7a293a81SHz6js" class=""></path></svg>