<?xml version="1.0" standalone="no"?><!DOCTYPE svg PUBLIC "-//W3C//DTD SVG 1.1//EN"
        "http://www.w3.org/Graphics/SVG/1.1/DTD/svg11.dtd"><svg t="1715865010302" class="icon"
                                                                viewBox="0 0 1024 1024" version="1.1"
                                                                xmlns="http://www.w3.org/2000/svg" p-id="6857"
                                                                xmlns:xlink="http://www.w3.org/1999/xlink" width="48"
                                                                height="48"><path
        d="M892.717949 853.333333H131.282051a118.285128 118.285128 0 0 1-118.153846-118.153846V262.564103a118.298256 118.298256 0 0 1 118.153846-118.153847h761.435898a118.298256 118.298256 0 0 1 118.153846 118.153847v472.615384a118.285128 118.285128 0 0 1-118.153846 118.153846z m-254.188308-124.56041a11.329641 11.329641 0 0 1 5.106872 1.312821 6.984205 6.984205 0 0 1 6.445949 6.445948 24.234667 24.234667 0 0 0 12.891897 6.445949h6.445949l25.770666-12.891897a25.166769 25.166769 0 0 0 6.432821-25.770667v-3.229539a13.955282 13.955282 0 0 1 12.891897-12.878769 21.425231 21.425231 0 0 0 16.121436-12.891897 35.170462 35.170462 0 0 0 3.229539-16.09518v-25.796923c-3.21641-9.636103-9.688615-16.108308-16.121436-16.108307a13.96841 13.96841 0 0 1-12.891898-12.891898v-6.445949a25.153641 25.153641 0 0 0-6.43282-25.770666l-25.796923-12.87877a13.824 13.824 0 0 0-6.249026-1.31282 20.795077 20.795077 0 0 0-13.128205 4.542359c-3.177026 3.177026-6.459077 6.445949-9.675487 6.445949s-6.485333-3.282051-9.649231-6.445949a68.818051 68.818051 0 0 1-9.124103-0.748308 59.549538 59.549538 0 0 0-7.876923-0.682666 27.214769 27.214769 0 0 0-8.822153 1.430974l-25.796924 12.891897a20.322462 20.322462 0 0 0-9.64923 25.770667v6.445949a13.96841 13.96841 0 0 1-12.891898 12.891897 21.385846 21.385846 0 0 0-16.121436 12.878769 35.222974 35.222974 0 0 0-3.229538 16.121436 24.274051 24.274051 0 0 0 3.229538 16.108308 20.414359 20.414359 0 0 0 19.350975 16.121436 13.96841 13.96841 0 0 1 12.891897 12.891897v6.432821a25.127385 25.127385 0 0 0 6.432821 25.770667l19.350974 12.891897a24.352821 24.352821 0 0 0 7.876923 1.31282 43.559385 43.559385 0 0 0 14.349128-3.321435l0.210052-0.065641 3.400205-1.168411a12.642462 12.642462 0 0 1 11.027692-7.758769zM511.514256 275.692308A131.754667 131.754667 0 0 0 379.405128 401.355487a131.190154 131.190154 0 0 0 61.243077 112.78441A206.020923 206.020923 0 0 0 302.08 713.924923v16.108308h161.109333a18.06441 18.06441 0 0 0 19.324718-16.108308 18.077538 18.077538 0 0 0-16.108307-19.350974h-128.892718a172.071385 172.071385 0 0 1 55.571692-114.386052 174.303179 174.303179 0 0 1 118.41641-46.723282 168.474256 168.474256 0 0 1 67.662769 12.891898 22.606769 22.606769 0 0 0 7.154872 1.207795 15.543795 15.543795 0 0 0 15.412513-10.883282 12.681846 12.681846 0 0 0 0.14441-10.502564 15.753846 15.753846 0 0 0-9.819897-8.795898h-3.229539a24.825436 24.825436 0 0 1-6.380307-1.588513h-0.07877a24.94359 24.94359 0 0 0-6.419692-1.614769 111.484718 111.484718 0 0 0 61.229949-106.338461 131.754667 131.754667 0 0 0-125.689436-132.109129z m96.689231 438.245743l-9.662359-3.229538v-9.675487a52.250256 52.250256 0 0 0-9.675487-29.000205 40.539897 40.539897 0 0 0-25.770667-12.87877v-12.891897a96.964923 96.964923 0 0 0 25.770667-12.891898 39.56841 39.56841 0 0 0 9.675487-29.000205v-9.675487l9.675487-6.43282 3.203282 3.229538a34.304 34.304 0 0 0 24.169026 9.662359 34.304 34.304 0 0 0 24.169026-9.662359l3.229538-6.445949 9.649231 6.445949v9.649231a52.158359 52.158359 0 0 0 9.675487 29.000205 40.579282 40.579282 0 0 0 25.770667 12.891897v12.891898a96.938667 96.938667 0 0 0-25.770667 12.878769 39.555282 39.555282 0 0 0-9.675487 29.000205v9.675487l-9.649231 6.445949-3.229538-3.21641a34.277744 34.277744 0 0 0-24.169026-9.675487 34.277744 34.277744 0 0 0-24.169026 9.675487l-3.203282 3.229538z m25.770667-103.122051a37.402256 37.402256 0 0 0-38.675692 38.675692 37.402256 37.402256 0 0 0 38.675692 38.675693 37.402256 37.402256 0 0 0 38.675692-38.675693 37.402256 37.402256 0 0 0-38.662564-38.675692z m0 51.554462a13.758359 13.758359 0 0 1-12.891898-12.87877 13.96841 13.96841 0 0 1 12.891898-12.891897 13.758359 13.758359 0 0 1 12.878769 12.891897 7.168 7.168 0 0 1-0.275692 7.194257 14.585436 14.585436 0 0 1-12.589949 5.671384z m-125.689436-161.109334a96.768 96.768 0 0 1-96.649846-96.676102 95.547077 95.547077 0 0 1 29.000205-68.870564 96.361026 96.361026 0 0 1 67.649641-27.792411 99.209846 99.209846 0 0 1 96.689231 96.662975 96.781128 96.781128 0 0 1-96.676103 96.662974z" fill="#1296db" p-id="6858" data-spm-anchor-id="a313x.search_index.0.i0.7a293a81SHz6js" class="selected"></path></svg>