<?xml version="1.0" standalone="no"?><!DOCTYPE svg PUBLIC "-//W3C//DTD SVG 1.1//EN"
        "http://www.w3.org/Graphics/SVG/1.1/DTD/svg11.dtd"><svg t="1715864584340" class="icon"
                                                                viewBox="0 0 1207 1024" version="1.1"
                                                                xmlns="http://www.w3.org/2000/svg" p-id="94472"
                                                                xmlns:xlink="http://www.w3.org/1999/xlink" width="30"
                                                                height="30"><path
        d="M1197.313248 481.602127c-12.703589-12.703589-33.120071-12.703589-45.82366 0L1115.874169 517.217545v-5.217545C1115.874169 230.025698 885.848471 0 603.874169 0c-162.651307 0-317.589721 78.716881-414.227736 210.970315-10.208241 14.064688-7.712893 35.615419 7.712894 45.823659 14.064688 10.208241 35.615419 7.712893 45.823659-7.712893 83.934426-115.693398 218.456358-184.202038 360.691183-184.202038 246.358883 0 447.120957 200.762074 447.120957 447.120957v4.990696l-35.615418-35.615419c-12.703589-12.703589-33.120071-12.703589-45.82366 0s-12.703589 33.120071 0 45.82366l91.42047 91.420469c6.351794 6.351794 15.198937 10.208241 22.911829 10.208241 8.847142 0 16.560035-3.856447 22.91183-10.208241l91.42047-91.420469c13.157288-12.703589 13.157288-32.893221-0.907399-45.59681zM964.792202 774.918919c-83.934426 115.693398-218.456358 184.202038-360.691183 184.202038-246.358883 0-447.120957-200.762074-447.120957-447.120957v-4.990696l35.615419 35.615419c6.351794 6.351794 15.198937 10.208241 22.91183 10.208241 8.847142 0 16.560035-3.856447 22.911829-10.208241 12.703589-12.703589 12.703589-33.120071 0-45.82366l-91.647319-91.420469c-6.351794-6.351794-14.064688-10.208241-22.91183-10.208241-8.847142 0-16.560035 3.856447-22.91183 10.208241L9.527692 496.801063c-12.703589 12.703589-12.703589 33.120071 0 45.82366s33.120071 12.703589 45.823659 0l35.615419-35.615419v4.990696c0 281.974302 230.025698 512 512 512 162.651307 0 317.589721-78.716881 414.227736-210.970315 10.208241-14.064688 7.712893-35.615419-7.712893-45.823659-12.930439-9.981391-33.120071-6.124945-44.689411 7.712893z" p-id="94473" data-spm-anchor-id="a313x.search_index.0.i58.60803a81aVpeE7" class="selected" fill="#e16531"></path><path d="M411.051839 445.986708c-1.361099 2.495348-2.495348 3.856447-4.990696 4.990696l-72.365086 7.712893c-11.34249 1.361099-20.416482 11.34249-20.416482 22.91183v62.156845c0 11.34249 8.847142 21.550731 20.416482 22.91183l72.365086 7.712893c2.495348 0 4.990696 2.495348 4.990696 4.990696 2.495348 7.712893 6.351794 16.560035 10.208241 24.046079 1.361099 2.495348 1.361099 4.990696-1.361099 7.712893L374.075321 666.938414c-7.712893 8.847142-6.351794 21.550731 1.361099 30.397873l44.462561 44.462561c7.712893 7.712893 21.550731 8.847142 30.397873 1.361099l55.805051-45.82366c2.495348-1.361099 4.990696-2.495348 7.712893-1.361099 7.712893 3.856447 15.198937 7.712893 24.046079 10.208241 2.495348 1.361099 3.856447 2.495348 4.990696 4.990696l7.712893 72.365086c1.361099 11.34249 11.34249 20.416482 22.91183 20.416482h62.383695c11.34249 0 21.550731-8.847142 22.91183-20.416482l7.712893-72.365086c0-2.495348 2.495348-4.990696 4.990696-4.990696 7.712893-2.495348 16.560035-6.351794 24.046079-10.208241 2.495348-1.361099 4.990696-1.361099 7.712893 1.361099l55.805051 45.82366c8.847142 7.712893 21.550731 6.351794 30.397873-1.361099l44.462561-44.462561c7.712893-7.712893 8.847142-21.550731 1.361099-30.397873L789.437306 611.133363c-1.361099-2.495348-2.495348-4.990696-1.361099-7.712893 3.856447-7.712893 7.712893-15.198937 10.208241-24.046079 1.361099-2.495348 2.495348-3.856447 4.990696-4.990696l72.365086-7.712893c11.34249-1.361099 20.416482-11.34249 20.416482-22.91183v-62.156845c0-11.34249-8.847142-21.550731-20.416482-22.91183l-72.365086-7.712893c-2.495348 0-4.990696-2.495348-4.990696-4.990696-2.495348-7.712893-6.351794-16.560035-10.208241-24.046079-1.361099-2.495348-1.361099-4.990696 1.361099-7.712893l45.82366-55.805051c7.712893-8.847142 6.351794-21.550731-1.361099-30.397873L789.437306 283.562251c-7.712893-7.712893-21.550731-8.847142-30.397873-1.361099L703.234382 328.024812c-2.495348 1.361099-4.990696 2.495348-7.712893 1.361099-7.712893-3.856447-15.198937-7.712893-24.046079-10.208242-2.495348-1.361099-3.856447-2.495348-4.990696-4.990695l-7.712893-72.365087c-1.361099-11.34249-11.34249-20.416482-22.91183-20.416482h-62.156845c-11.34249 0-21.550731 8.847142-22.91183 20.416482l-7.712893 72.365087c0 2.495348-2.495348 4.990696-4.990696 4.990695-7.712893 2.495348-16.560035 6.351794-24.046079 10.208242-2.495348 1.361099-4.990696 1.361099-7.712893-1.361099l-55.805051-45.82366c-8.847142-7.712893-21.550731-6.351794-30.397873 1.361099l-44.462561 44.462561c-7.712893 7.712893-8.847142 21.550731-1.361099 30.397873l45.82366 55.805051c1.361099 2.495348 2.495348 4.990696 1.361099 7.712893-4.083296 8.847142-6.578644 16.333186-10.435091 24.046079z m97.772264 40.606114c11.34249-11.34249 30.397873-10.208241 41.967213 1.361099l31.758972 33.120071 76.221533-81.212229c11.34249-11.34249 29.263624-12.703589 41.967213-1.361098 11.34249 11.34249 12.703589 29.263624 1.361099 41.967213l-97.999114 102.762959c-4.990696 6.351794-12.703589 8.847142-21.550731 8.847143s-15.198937-3.856447-21.550731-8.847143l-53.309703-55.805051c-11.56934-11.56934-11.56934-30.624723 1.134249-40.832964z" p-id="94474" data-spm-anchor-id="a313x.search_index.0.i57.60803a81aVpeE7" class="selected" fill="#e16531"></path></svg>