<?xml version="1.0" standalone="no"?><!DOCTYPE svg PUBLIC "-//W3C//DTD SVG 1.1//EN"
        "http://www.w3.org/Graphics/SVG/1.1/DTD/svg11.dtd"><svg t="1716091011083" class="icon"
                                                                viewBox="0 0 1024 1024" version="1.1"
                                                                xmlns="http://www.w3.org/2000/svg" p-id="4845"
                                                                width="20" height="20" xmlns:xlink="http://www.w3.org/1999/xlink"><path d="M698.026667 597.333333c3.413333-28.16 5.973333-56.32 5.973333-85.333333 0-29.013333-2.56-57.173333-5.973333-85.333333h144.213333c6.826667 27.306667 11.093333 55.893333 11.093333 85.333333s-4.266667 58.026667-11.093333 85.333333m-219.733333 237.226667c25.6-47.36 45.226667-98.56 58.88-151.893333h125.866666a342.613333 342.613333 0 0 1-184.746666 151.893333M611.84 597.333333H412.16c-4.266667-28.16-6.826667-56.32-6.826667-85.333333 0-29.013333 2.56-57.6 6.826667-85.333333h199.68c3.84 27.733333 6.826667 56.32 6.826667 85.333333 0 29.013333-2.986667 57.173333-6.826667 85.333333M512 851.626667c-35.413333-51.2-64-107.946667-81.493333-168.96h162.986666c-17.493333 61.013333-46.08 117.76-81.493333 168.96M341.333333 341.333333H216.746667A338.048 338.048 0 0 1 401.066667 189.44C375.466667 236.8 356.266667 288 341.333333 341.333333m-124.586666 341.333334H341.333333c14.933333 53.333333 34.133333 104.533333 59.733334 151.893333A341.674667 341.674667 0 0 1 216.746667 682.666667m-34.986667-85.333334C174.933333 570.026667 170.666667 541.44 170.666667 512s4.266667-58.026667 11.093333-85.333333h144.213333c-3.413333 28.16-5.973333 56.32-5.973333 85.333333 0 29.013333 2.56 57.173333 5.973333 85.333333M512 171.946667c35.413333 51.2 64 108.373333 81.493333 169.386666h-162.986666c17.493333-61.013333 46.08-118.186667 81.493333-169.386666M807.253333 341.333333h-125.866666a667.733333 667.733333 0 0 0-58.88-151.893333c78.506667 26.88 143.786667 81.066667 184.746666 151.893333M512 85.333333C276.053333 85.333333 85.333333 277.333333 85.333333 512a426.666667 426.666667 0 0 0 426.666667 426.666667 426.666667 426.666667 0 0 0 426.666667-426.666667A426.666667 426.666667 0 0 0 512 85.333333z" fill="#e16531" p-id="4846"></path></svg>